Patient4_TMGait_0pt6_02_right_24_EMG.mot
version=1
nRows=26
nColumns=33
inDegrees=no
endheader
time	1LAddLong	2LGlutMax	3LGlutMed	4LIliopsoas	5LSemiMemb	6LBicFemLong	7LRecFem	8LVastMed	9LVastLat	10LGasMed	11LTibAnt	12lTibPost	13LPeroneusLong	14LSol	15LExtDigLong	16LFlexDigLong	17RAddLong	18RGlutMax	19RGlutMed	20RIliopsoas	21RSemiMemb	22RBicFemLong	23RRecFem	24RVastMed	25RVastLat	26RGasMed	27RTibAnt	28RTibPost	29RPeroneusLong	30RSol	31RExtDigLong	32RFlexDigLong
28.76	0.004578	-0.18448	-0.013123	0.018311	-0.006561	-0.081635	0.01358	0.021057	-0.005035	-0.083313	0.023651	-0.016785	0.061493	-0.35126	-0.010071	-0.016937	0.006866	-0.009766	0.44403	-0.14114	-0.037384	-0.014343	0.058441	-0.10086	-0.015106	-0.007935	-0.14496	-0.003357	0.15198	-0.022125	-0.009766	-0.003662
28.761	-0.00061	-0.20416	0.077209	0.020142	0.023193	-0.045013	-0.014954	0.010376	0.005798	-0.056305	-0.025177	-0.016327	0.081787	-0.50156	-0.002136	-0.02121	0.010986	-0.071716	0.21622	-0.052338	-0.0383	-0.012512	0.004425	-0.039368	-0.036011	-0.004425	-0.24338	-0.000153	0.1413	0.00061	-0.007782	-0.010071
28.762	0.012665	-0.1918	0.10513	0.003967	-0.017242	0.18539	-0.009918	0.012512	0.046692	-0.03479	0.014801	-0.008392	-0.00824	-0.38589	0.006256	0.002747	0.01297	-0.078735	-0.015869	0.21851	-0.041199	-0.029907	0.10773	-0.02182	-0.030212	-0.009613	-0.54977	-0.003204	0.13123	0.053253	-0.004578	-0.008392
28.763	-0.004578	-0.078888	0.051575	0.009003	-0.024109	0.29373	-0.02182	0.004578	0.073547	-0.023193	0.003815	0.001984	-0.14648	-0.16235	0.055389	0.073242	0.007629	-0.057831	-0.063934	0.25925	-0.039673	-0.017853	0.20599	-0.002747	-0.047607	-0.013885	-0.38132	0.001678	0.058136	0.051117	-0.006714	-0.015869
28.764	-0.040741	-0.086975	0.040588	0.002899	0.029602	0.14206	0.023041	0.005646	0.103	0.084839	0.022125	0.001678	0.14679	0.006561	0.04776	0.1358	0.00824	-0.065765	0.31281	0.10819	-0.040588	-0.026245	0.23209	-0.026398	-0.044098	-0.008392	0.10925	-0.002289	-0.27084	0.041504	-0.005798	-0.015411
28.765	-0.04364	-0.096893	0.10544	0.018005	0.02594	0.093689	0.074615	0.013123	0.12756	0.22461	0.029449	0.002289	0.2504	0.12329	-0.029449	-0.65384	0.001373	-0.058441	0.34744	0.033722	-0.045013	-0.021667	0.17944	-0.040283	-0.026703	-0.008392	0.2945	-0.001831	-0.45425	0.003967	-0.009613	-0.006256
28.766	-0.009155	-0.14496	0.057373	0.014801	0.020599	0.013885	0.070038	-0.007324	0.077972	0.21454	0.040588	-0.000458	-0.14267	0.029907	-0.072479	0.019379	0.000916	-0.00473	0.21255	0.02243	-0.045624	-0.020905	0.080719	-0.098572	-0.028229	-0.005951	0.44693	-0.001526	-0.68634	-0.054779	-0.006256	-0.003815
28.767	-0.001221	-0.11673	0.014954	0.017853	0.029755	-0.48263	0.028229	0.001221	0.040436	0.24719	0.010834	-0.001984	-0.34698	-0.081787	-0.055542	0.14404	0.008698	0.023499	0.3537	-0.020599	-0.036926	-0.019989	0.059052	-0.10529	-0.013428	-0.012207	0.62592	-0.000458	-0.032196	-0.087128	-0.007935	-0.000153
28.768	0.035248	-0.094757	0	-0.01297	0.0354	-0.51849	0.015411	0.008087	0.028687	0.42999	-0.014801	-0.017242	0.10803	-0.079193	-0.018311	0.067291	0.011749	-0.098267	0.1355	0.019684	-0.045166	-0.030518	0.026398	-0.11185	-0.035553	-0.012665	0.30029	-0.005341	0.70145	-0.13672	0.006104	0.000916
28.769	-0.023346	-0.11612	-0.045929	0.006866	0.002136	-0.39124	0.02121	0.019836	0.012207	0.36819	-0.039063	-0.000458	0.24674	-0.02533	-0.010986	0.0383	0.005646	-0.1152	-0.094757	-0.002441	-0.047455	-0.047913	0.024719	-0.084534	-0.039215	-0.014496	-0.51773	-0.002441	0.58365	-0.15076	-0.004578	0.002289
28.77	-0.022736	-0.16098	-0.12695	0.020752	-0.042572	-0.32944	0.023346	0	0.018616	-0.21576	-0.00351	-0.001221	0.52246	0.055084	0.019836	-0.011902	0.07019	-0.090332	-0.047913	0.031128	-0.048065	-0.026703	0.01358	-0.103	-0.036774	-0.021515	-0.69427	-0.005341	0.39475	-0.053101	-0.007172	-0.001221
28.771	0.007629	-0.21744	-0.1767	-0.00885	-0.002747	-0.47241	0.014496	0.000916	0.012512	0.061035	0.019226	0.002289	0.60547	0.058289	0.052338	-0.00885	0.12665	-0.103	-0.11932	0.049591	-0.052643	-0.02655	0.062256	-0.11353	-0.027618	-0.023193	-0.11108	-0.008087	0.39932	0.055237	-0.007477	0.000916
28.772	0.004425	-0.24918	-0.10819	-0.010681	0.035706	-0.62866	0.020905	0.002441	0.0354	0.18326	0.019989	0.02655	-0.36362	0.23438	0.093689	-0.006714	0.12299	-0.047302	-0.12131	0.032501	-0.071716	-0.040283	0.10712	-0.12634	-0.025635	-0.018616	0.1947	-0.004578	0.15121	0.07309	0	-0.009155
28.773	0.007477	-0.20233	-0.056915	-0.005188	0.055542	-0.38055	0.027771	0.002289	0.014648	0.38818	0.032806	0.17212	-0.89722	0.27405	0.042877	-0.008392	0.074615	-0.055695	-0.13473	0.073547	-0.045013	-0.058136	0.027008	-0.091705	-0.014343	-0.014648	0.13458	-0.003052	-0.11734	0.010681	-0.004883	-0.005646
28.774	-0.002594	-0.19348	-0.17425	0.010681	0.00946	-0.27985	0.037994	-0.000153	0.009155	0.88699	0.019531	-0.020599	-0.15335	0.14404	-0.025787	-0.023193	0.02594	-0.05661	-0.074158	0.11841	-0.025482	-0.057983	0.03418	-0.082092	-0.014191	-0.002594	0.13412	-0.005951	-0.21561	-0.078583	-0.006256	-0.008545
28.775	0.001526	-0.18982	-0.089264	-0.00473	-0.016937	-0.26901	0.041656	0.007172	0.003662	0.53024	-0.006866	-0.10437	-0.25375	0.0383	-0.051117	-0.05127	-0.004883	-0.049896	0.061798	0.11154	-0.025024	-0.038147	0.029297	-0.058136	-0.012207	0.003815	0.13092	-0.008698	-0.085907	-0.12222	-0.006561	-0.003204
28.776	-0.002899	-0.10605	0.021515	-0.017548	-0.023804	-0.21927	0.018921	0.007172	0.012665	-0.37415	-0.000305	0.005341	-0.32455	-0.092163	-0.008392	-0.076752	-0.019379	-0.030365	0.33707	-0.003204	-0.084229	-0.020142	0.039978	-0.071259	0.000763	-0.00061	0.28198	-0.003204	-0.014496	0.002441	-0.007019	-0.004578
28.777	-0.005188	-0.092621	-0.066986	0.002289	-0.025177	-0.11551	0.048218	0.023804	-0.011292	-0.75714	0.007019	0.004883	-0.10941	-0.13367	-0.011139	0.005035	-0.005341	-0.048676	0.48157	-0.097961	-0.082855	0.02121	0.07019	-0.066071	0.001831	-0.002441	0.12436	-0.001526	-0.003204	0.044556	-0.001373	-0.006104
28.778	0.00412	-0.091095	-0.12299	-0.010376	-0.021667	-0.077209	0.037384	0.018616	-0.024872	-1.3754	0.011292	0.002289	-0.20218	0.084229	-0.003815	0.12711	0.031433	-0.032959	0.36163	-0.1413	-0.038452	0.10223	0.06073	-0.05661	0.011749	0.001526	-0.25299	-0.002136	0.070038	0.002594	0	-0.002441
28.779	0.014038	-0.08667	0.003052	-0.006714	0.026703	-0.11749	0.036774	0.019836	-0.000458	-1.3951	0.016174	0.005798	-0.28183	0.18433	-0.001984	0.003052	0.021973	-0.057526	0.16083	-0.13718	-0.04364	0.099792	0.049133	-0.004425	-0.006104	0.007782	-0.1683	-0.001678	0.094452	-0.016174	-0.005341	-0.00061
28.78	0.011139	-0.087128	0.12985	0.015106	0.082855	-0.001526	0.033569	0.008698	0.011292	-0.60226	0.003357	-0.001221	-0.23193	0.015106	-0.010681	-0.31586	-0.012817	-0.096588	0.25909	-0.057831	-0.043945	0.070343	0.072174	-0.021667	-0.000305	0.001831	0.34256	-0.005188	0.029907	-0.005646	-0.004272	-0.000916
28.781	-0.001373	-0.090027	0.13672	0.001984	0.057983	0.14908	-0.009613	0.023193	0.015106	0.31616	0.007324	-0.029755	-0.14832	0.22522	-0.02594	-0.18234	-0.044403	-0.020142	0.15656	-0.001221	-0.13626	0.045013	0.072784	-0.09079	0.004425	-0.001831	0.80414	-0.002594	-0.060577	-0.042725	-0.005188	-0.00412
28.782	-0.000153	-0.097198	0.10574	0.014191	0.028687	0.20004	-0.046844	0.027008	0.054169	0.37064	-0.002136	-0.006561	0.10925	0.32379	-0.025635	0.36652	-0.061951	-0.017548	0.070801	0.040131	-0.23483	0.048218	0.039368	-0.1152	0.003815	-0.00061	0.60486	-0.003815	-0.02121	-0.011749	-0.007629	-0.002899
28.783	0.022125	-0.11902	0.096893	-0.007019	-0.001526	0.21103	-0.008392	0.010529	0.077515	-0.12024	-0.002136	0.005646	0.066986	0.11719	-0.040436	-0.047302	-0.072021	-0.003815	-0.081024	0.013275	-0.17548	0.071716	0.030212	-0.10651	0.007782	0.007477	-0.15686	-0.00412	0.002441	-0.021057	-0.00351	0.00061
28.784	0.016174	-0.081482	0.058289	0.010986	-0.008392	0.12589	-0.018005	-0.008698	0.08606	0.25467	0.00885	0.00946	0.18036	-0.29739	-0.055847	-0.46478	-0.055084	-0.033569	-0.020599	-0.001831	0.004578	0.097198	-0.018005	-0.14496	0.022278	0.00885	-0.79117	-0.002899	-0.014954	-0.081787	-0.003052	0.002441
28.785	0.014496	-0.094757	0.048981	0.001831	-0.019379	0.12726	0.00061	-0.016785	0.012207	0.2861	0.004883	0.04364	0.26657	-0.24872	-0.030212	1.239	-0.048828	-0.061951	0.081329	-0.007324	0.27985	0.1294	0.002899	-0.11826	0.009613	0.013885	-0.66681	-0.001984	-0.11551	-0.1178	-0.005341	0.00351
